<mxfile host="app.diagrams.net" modified="2022-04-13T17:15:40.907Z" agent="5.0 (Windows)" etag="ShQBeQdap2zI7aPHNujm" version="17.4.3" type="github">
  <diagram name="Page-1" id="74e2e168-ea6b-b213-b513-2b3c1d86103e">
    <mxGraphModel dx="1038" dy="564" grid="1" gridSize="10" guides="1" tooltips="1" connect="1" arrows="1" fold="1" page="1" pageScale="1" pageWidth="1100" pageHeight="850" background="none" math="0" shadow="0">
      <root>
        <mxCell id="0" />
        <mxCell id="1" parent="0" />
        <mxCell id="77e6c97f196da883-1" value="&lt;font style=&quot;font-size: 21px&quot;&gt;برنامه هشت ترم مهندسی برق&lt;br&gt;&lt;/font&gt;" style="swimlane;html=1;childLayout=stackLayout;startSize=40;rounded=0;shadow=0;labelBackgroundColor=none;strokeWidth=1;fontFamily=Verdana;fontSize=8;align=center;" parent="1" vertex="1">
          <mxGeometry x="20" y="20" width="1360" height="900" as="geometry" />
        </mxCell>
        <mxCell id="77e6c97f196da883-2" value="ترم یک" style="swimlane;html=1;startSize=20;" parent="77e6c97f196da883-1" vertex="1">
          <mxGeometry y="40" width="160" height="860" as="geometry" />
        </mxCell>
        <mxCell id="T9a61YOhpBg6Lm2HkQAi-7" value="ریاضی 1" style="rounded=1;whiteSpace=wrap;html=1;fontSize=21;" vertex="1" parent="77e6c97f196da883-2">
          <mxGeometry x="20" y="60" width="120" height="60" as="geometry" />
        </mxCell>
        <mxCell id="T9a61YOhpBg6Lm2HkQAi-13" value="زبان عمومی" style="rounded=1;whiteSpace=wrap;html=1;fontSize=21;" vertex="1" parent="77e6c97f196da883-2">
          <mxGeometry x="20" y="320" width="120" height="60" as="geometry" />
        </mxCell>
        <mxCell id="T9a61YOhpBg6Lm2HkQAi-11" value="برنامه نویسی" style="rounded=1;whiteSpace=wrap;html=1;fontSize=21;" vertex="1" parent="77e6c97f196da883-2">
          <mxGeometry x="20" y="430" width="120" height="60" as="geometry" />
        </mxCell>
        <mxCell id="T9a61YOhpBg6Lm2HkQAi-12" value="آز فیزیک 1" style="rounded=1;whiteSpace=wrap;html=1;fontSize=21;" vertex="1" parent="77e6c97f196da883-2">
          <mxGeometry x="20" y="540" width="120" height="60" as="geometry" />
        </mxCell>
        <mxCell id="T9a61YOhpBg6Lm2HkQAi-9" value="کارگاه عمومی" style="rounded=1;whiteSpace=wrap;html=1;fontSize=21;" vertex="1" parent="77e6c97f196da883-2">
          <mxGeometry x="20" y="660" width="120" height="60" as="geometry" />
        </mxCell>
        <mxCell id="T9a61YOhpBg6Lm2HkQAi-10" value="فیزیک 1" style="rounded=1;whiteSpace=wrap;html=1;fontSize=21;" vertex="1" parent="77e6c97f196da883-2">
          <mxGeometry x="20" y="200" width="120" height="60" as="geometry" />
        </mxCell>
        <mxCell id="77e6c97f196da883-3" value="ترم دو" style="swimlane;html=1;startSize=20;" parent="77e6c97f196da883-1" vertex="1">
          <mxGeometry x="160" y="40" width="190" height="860" as="geometry" />
        </mxCell>
        <mxCell id="T9a61YOhpBg6Lm2HkQAi-39" style="edgeStyle=orthogonalEdgeStyle;rounded=0;orthogonalLoop=1;jettySize=auto;html=1;exitX=0.5;exitY=1;exitDx=0;exitDy=0;entryX=0.5;entryY=0;entryDx=0;entryDy=0;fontSize=21;" edge="1" parent="77e6c97f196da883-3" source="T9a61YOhpBg6Lm2HkQAi-17" target="T9a61YOhpBg6Lm2HkQAi-19">
          <mxGeometry relative="1" as="geometry" />
        </mxCell>
        <mxCell id="T9a61YOhpBg6Lm2HkQAi-17" value="ریاضی 2" style="whiteSpace=wrap;html=1;fontSize=21;rounded=1;" vertex="1" parent="77e6c97f196da883-3">
          <mxGeometry x="40" y="30" width="110" height="50" as="geometry" />
        </mxCell>
        <mxCell id="T9a61YOhpBg6Lm2HkQAi-19" value="معادلات دیفرانسیل" style="rounded=1;whiteSpace=wrap;html=1;fontSize=21;" vertex="1" parent="77e6c97f196da883-3">
          <mxGeometry x="40" y="110" width="110" height="60" as="geometry" />
        </mxCell>
        <mxCell id="T9a61YOhpBg6Lm2HkQAi-38" value="" style="edgeStyle=orthogonalEdgeStyle;rounded=0;orthogonalLoop=1;jettySize=auto;html=1;fontSize=21;" edge="1" parent="77e6c97f196da883-3" source="T9a61YOhpBg6Lm2HkQAi-33" target="T9a61YOhpBg6Lm2HkQAi-37">
          <mxGeometry relative="1" as="geometry" />
        </mxCell>
        <mxCell id="T9a61YOhpBg6Lm2HkQAi-33" value="فیزیک 2" style="rounded=1;whiteSpace=wrap;html=1;fontSize=21;" vertex="1" parent="77e6c97f196da883-3">
          <mxGeometry x="40" y="200" width="120" height="60" as="geometry" />
        </mxCell>
        <mxCell id="T9a61YOhpBg6Lm2HkQAi-35" value="" style="endArrow=classic;html=1;rounded=0;fontSize=21;entryX=0;entryY=0.5;entryDx=0;entryDy=0;" edge="1" parent="77e6c97f196da883-3" target="T9a61YOhpBg6Lm2HkQAi-33">
          <mxGeometry relative="1" as="geometry">
            <mxPoint x="-20" y="229.5" as="sourcePoint" />
            <mxPoint x="80" y="229.5" as="targetPoint" />
          </mxGeometry>
        </mxCell>
        <mxCell id="T9a61YOhpBg6Lm2HkQAi-36" value="1" style="edgeLabel;resizable=0;html=1;align=center;verticalAlign=middle;fontSize=21;" connectable="0" vertex="1" parent="T9a61YOhpBg6Lm2HkQAi-35">
          <mxGeometry relative="1" as="geometry" />
        </mxCell>
        <mxCell id="T9a61YOhpBg6Lm2HkQAi-37" value="آز فیزیک 2" style="rounded=1;whiteSpace=wrap;html=1;fontSize=21;" vertex="1" parent="77e6c97f196da883-3">
          <mxGeometry x="40" y="340" width="120" height="60" as="geometry" />
        </mxCell>
        <mxCell id="T9a61YOhpBg6Lm2HkQAi-42" value="کارگاه برق" style="rounded=1;whiteSpace=wrap;html=1;fontSize=21;" vertex="1" parent="77e6c97f196da883-3">
          <mxGeometry x="50" y="660" width="120" height="60" as="geometry" />
        </mxCell>
        <mxCell id="77e6c97f196da883-4" value="ترم سه" style="swimlane;html=1;startSize=20;" parent="77e6c97f196da883-1" vertex="1">
          <mxGeometry x="350" y="40" width="160" height="860" as="geometry" />
        </mxCell>
        <mxCell id="77e6c97f196da883-5" value="ترم چهار" style="swimlane;html=1;startSize=20;" parent="77e6c97f196da883-1" vertex="1">
          <mxGeometry x="510" y="40" width="160" height="860" as="geometry" />
        </mxCell>
        <mxCell id="77e6c97f196da883-6" value="ترم ئنجم" style="swimlane;html=1;startSize=20;" parent="77e6c97f196da883-1" vertex="1">
          <mxGeometry x="670" y="40" width="160" height="860" as="geometry" />
        </mxCell>
        <mxCell id="77e6c97f196da883-7" value="ترم شش" style="swimlane;html=1;startSize=20;" parent="77e6c97f196da883-1" vertex="1">
          <mxGeometry x="830" y="40" width="160" height="860" as="geometry">
            <mxRectangle x="800" y="20" width="30" height="730" as="alternateBounds" />
          </mxGeometry>
        </mxCell>
        <mxCell id="T9a61YOhpBg6Lm2HkQAi-2" value="ترم هفت" style="swimlane;html=1;startSize=20;" vertex="1" parent="77e6c97f196da883-1">
          <mxGeometry x="990" y="40" width="160" height="860" as="geometry">
            <mxRectangle x="800" y="20" width="30" height="730" as="alternateBounds" />
          </mxGeometry>
        </mxCell>
        <mxCell id="T9a61YOhpBg6Lm2HkQAi-4" value="ترم هشت" style="swimlane;html=1;startSize=20;" vertex="1" parent="77e6c97f196da883-1">
          <mxGeometry x="1150" y="40" width="160" height="860" as="geometry">
            <mxRectangle x="800" y="20" width="30" height="730" as="alternateBounds" />
          </mxGeometry>
        </mxCell>
        <mxCell id="T9a61YOhpBg6Lm2HkQAi-28" value="" style="endArrow=classic;html=1;rounded=0;fontSize=21;entryX=0;entryY=0.5;entryDx=0;entryDy=0;exitX=1;exitY=0.5;exitDx=0;exitDy=0;" edge="1" parent="77e6c97f196da883-1" source="T9a61YOhpBg6Lm2HkQAi-7" target="T9a61YOhpBg6Lm2HkQAi-17">
          <mxGeometry relative="1" as="geometry">
            <mxPoint x="140" y="130" as="sourcePoint" />
            <mxPoint x="240" y="130" as="targetPoint" />
          </mxGeometry>
        </mxCell>
        <mxCell id="T9a61YOhpBg6Lm2HkQAi-29" value="1" style="edgeLabel;resizable=0;html=1;align=center;verticalAlign=middle;fontSize=21;" connectable="0" vertex="1" parent="T9a61YOhpBg6Lm2HkQAi-28">
          <mxGeometry relative="1" as="geometry" />
        </mxCell>
        <mxCell id="T9a61YOhpBg6Lm2HkQAi-40" value="" style="endArrow=classic;html=1;rounded=0;fontSize=21;exitX=1;exitY=0.5;exitDx=0;exitDy=0;" edge="1" parent="77e6c97f196da883-1" source="T9a61YOhpBg6Lm2HkQAi-9" target="T9a61YOhpBg6Lm2HkQAi-42">
          <mxGeometry relative="1" as="geometry">
            <mxPoint x="140" y="730" as="sourcePoint" />
            <mxPoint x="240" y="730" as="targetPoint" />
            <Array as="points">
              <mxPoint x="190" y="730" />
              <mxPoint x="210" y="730" />
            </Array>
          </mxGeometry>
        </mxCell>
        <mxCell id="T9a61YOhpBg6Lm2HkQAi-41" value="1" style="edgeLabel;resizable=0;html=1;align=center;verticalAlign=middle;fontSize=21;" connectable="0" vertex="1" parent="T9a61YOhpBg6Lm2HkQAi-40">
          <mxGeometry relative="1" as="geometry" />
        </mxCell>
      </root>
    </mxGraphModel>
  </diagram>
</mxfile>
